<?xml version="1.0" encoding="UTF-8" standalone="no"?>
<!-- Created with Inkscape (http://www.inkscape.org/) -->

<svg
   width="599.35931"
   height="322.52737"
   viewBox="0 0 599.35931 322.52737"
   version="1.1"
   id="svg1"
   xml:space="preserve"
   xmlns="http://www.w3.org/2000/svg"
   xmlns:svg="http://www.w3.org/2000/svg"><defs
     id="defs1"><clipPath
       id="da824e6615"><path
         d="M 240.75781,120 H 690.53516 V 362.85547 H 240.75781 Z m 0,0"
         clip-rule="nonzero"
         id="path1" /></clipPath><clipPath
       id="d921a82a8a"><path
         d="M 240.75781,120 H 690.53516 V 340 H 240.75781 Z m 0,0"
         clip-rule="nonzero"
         id="path2" /></clipPath></defs><g
     id="layer1"
     transform="translate(-647.94623,-333.43069)"><g
       id="g2"
       transform="matrix(1.3333333,0,0,1.3333333,326.93583,173.22759)"><g
         clip-path="url(#da824e6615)"
         id="g3"><path
           fill="#ffc334"
           d="m 690.27734,146.44922 v 166.6914 c 0,14.52344 -11.77343,26.29688 -26.29687,26.29688 H 485.78516 c -2.20313,0 -4.26563,1.10156 -5.48829,2.9375 l -12.21875,18.30469 c -1.21875,1.82422 -3.90234,1.82422 -5.12109,0 L 450.73828,342.375 c -1.22266,-1.83594 -3.28125,-2.9375 -5.48828,-2.9375 H 267.05469 c -14.52344,0 -26.29688,-11.77344 -26.29688,-26.29688 v -166.6914 c 0,-14.52344 11.77344,-26.29688 26.29688,-26.29688 h 396.92578 c 14.52344,0 26.29687,11.77344 26.29687,26.29688 z m 0,0"
           fill-opacity="1"
           fill-rule="nonzero"
           id="path3" /></g><g
         clip-path="url(#d921a82a8a)"
         id="g4"><path
           fill="#f4f4f4"
           d="m 690.27734,169.11719 v 11.5625 c -3.85547,-0.0625 -7.69922,-0.0937 -11.5,-0.1211 -11.61718,-0.0859 -23.63281,-0.17578 -35.51562,-1.26953 -28.83203,-2.65234 -51.4375,-11.42969 -67.19141,-26.08203 -10.13281,-9.42187 -17.14062,-20.74219 -22.36328,-33.05469 h 12.63281 c 4.39453,9.20703 10.01563,17.53125 17.60547,24.58985 13.83594,12.87109 34.15235,20.62109 60.375,23.03515 11.39844,1.04688 23.16406,1.13282 34.54297,1.21875 3.76953,0.0273 7.58203,0.0586 11.41406,0.1211 z m -396.09375,-3.97266 c -13.08203,12.23438 -27.28515,23.84766 -41.01953,35.07422 -4.12109,3.36719 -8.26562,6.75781 -12.40625,10.1875 v 15.0625 c 6.55469,-5.52734 13.16797,-10.94141 19.72266,-16.29688 13.88281,-11.34765 28.23828,-23.08203 41.60156,-35.58593 18.64063,-17.4336 33.54297,-35.30469 44.60547,-53.4336 h -13.69922 c -10.05078,15.17969 -23.00781,30.21485 -38.80469,44.99219 z m 348.30469,123.64453 c -20.66797,-22.24609 -52.92578,-24.82031 -76.33984,-23.05859 -36.6875,2.7539 -74.15625,15.33203 -111.35938,37.38281 -17.1289,10.14844 -34.14062,22.1875 -51.33594,36.32422 h 18.55079 c 49.3164,-38.12109 97.15625,-58.58594 145.00781,-62.17969 20.88672,-1.5664 49.46875,0.52344 67.00781,19.40235 9.26172,9.97265 14.22266,23.14453 19.47266,37.08984 0.70703,1.875 1.42968,3.78125 2.16015,5.6875 h 8.32813 c 1.35156,0 2.67969,-0.10156 3.97265,-0.30078 -1.25,-3.14063 -2.46093,-6.33203 -3.64062,-9.46094 -5.41406,-14.37891 -11.01172,-29.24609 -21.82422,-40.88672 z m 0,0"
           fill-opacity="1"
           fill-rule="nonzero"
           id="path4" /></g><g
         fill="#000000"
         fill-opacity="1"
         id="g7"><g
           transform="translate(349.71814,245.75084)"
           id="g6"><g
             id="g5"><path
               d="m 8.59375,-45.921875 v 25.203125 l 17.3125,-25.203125 h 5.1875 L 17.421875,-26.609375 31.09375,0 H 26.265625 L 14.71875,-22.78125 8.59375,-14.125 V 0 H 4.359375 v -45.921875 z m 0,0"
               id="path5" /></g></g></g><g
         fill="#000000"
         fill-opacity="1"
         id="g10"><g
           transform="translate(382.81004,245.75084)"
           id="g9"><g
             id="g8"><path
               d="m 4.296875,0 v -47.09375 h 4.125 V 0 Z m 0,0"
               id="path7" /></g></g></g><g
         fill="#000000"
         fill-opacity="1"
         id="g13"><g
           transform="translate(395.52864,245.75084)"
           id="g12"><g
             id="g11"><path
               d="m 4.296875,0 v -31.203125 h 4.125 V 0 Z m 4.71875,-43.859375 v 5.296875 h -5.3125 v -5.296875 z m 0,0"
               id="path10" /></g></g></g><g
         fill="#000000"
         fill-opacity="1"
         id="g16"><g
           transform="translate(408.24724,245.75084)"
           id="g15"><g
             id="g14"><path
               d="m 3.828125,0 v -47.09375 h 4.125 v 32.375 L 22.78125,-31.203125 h 5.125 L 17.1875,-19.375 27.90625,0 h -4.703125 l -8.84375,-16.25 -6.40625,7.0625 V 0 Z m 0,0"
               id="path13" /></g></g></g><g
         fill="#000000"
         fill-opacity="1"
         id="g22"><g
           transform="translate(449.52378,245.75084)"
           id="g21"><g
             id="g20"><path
               d="m 14.953125,-31.84375 c 2.195313,0 4,0.414062 5.40625,1.234375 1.414063,0.824219 2.554687,1.824219 3.421875,3 V -47.09375 h 4.125 V -8.828125 L 28.265625,0 H 24.78125 l -0.578125,-4.1875 c -0.792969,1.34375 -1.945313,2.484375 -3.453125,3.421875 -1.511719,0.9375 -3.445312,1.40625 -5.796875,1.40625 -2.824219,0 -5.121094,-0.6914062 -6.890625,-2.078125 C 6.300781,-2.832031 5.015625,-4.707031 4.203125,-7.0625 3.398438,-9.414062 3,-12.023438 3,-14.890625 V -16.3125 c 0,-2.90625 0.398438,-5.523438 1.203125,-7.859375 0.8125,-2.332031 2.097656,-4.191406 3.859375,-5.578125 1.769531,-1.394531 4.066406,-2.09375 6.890625,-2.09375 z M 15.84375,-3.0625 c 1.40625,0 2.617188,-0.253906 3.640625,-0.765625 1.019531,-0.507813 1.882813,-1.144531 2.59375,-1.90625 0.707031,-0.769531 1.273437,-1.488281 1.703125,-2.15625 V -23.3125 c -0.429688,-0.707031 -0.996094,-1.429688 -1.703125,-2.171875 -0.710937,-0.75 -1.574219,-1.378906 -2.59375,-1.890625 -1.023437,-0.507812 -2.234375,-0.765625 -3.640625,-0.765625 -2.949219,0 -5.132812,1.074219 -6.546875,3.21875 -1.40625,2.136719 -2.109375,5.007813 -2.109375,8.609375 v 1.421875 c 0,3.605469 0.703125,6.480469 2.109375,8.625 1.414063,2.136719 3.597656,3.203125 6.546875,3.203125 z m 0,0"
               id="path19" /></g></g></g><g
         fill="#000000"
         fill-opacity="1"
         id="g25"><g
           transform="translate(481.32025,245.75084)"
           id="g24"><g
             id="g23"><path
               d="m 4.296875,0 v -31.203125 h 4.125 V 0 Z m 4.71875,-43.859375 v 5.296875 h -5.3125 v -5.296875 z m 0,0"
               id="path22" /></g></g></g><g
         fill="#000000"
         fill-opacity="1"
         id="g28"><g
           transform="translate(494.03885,245.75084)"
           id="g27"><g
             id="g26"><path
               d="m 15.359375,-2.828125 c 2.550781,0 4.484375,-0.519531 5.796875,-1.5625 1.320312,-1.039063 1.984375,-2.421875 1.984375,-4.140625 0,-2.125 -0.667969,-3.546875 -2,-4.265625 C 19.804688,-13.523438 17.625,-14.03125 14.59375,-14.3125 11.8125,-14.539062 9.625,-15.019531 8.03125,-15.75 c -1.585938,-0.726562 -2.695312,-1.671875 -3.328125,-2.828125 -0.625,-1.15625 -0.9375,-2.5 -0.9375,-4.03125 v -0.359375 c 0,-2.707031 1.019531,-4.863281 3.0625,-6.46875 2.039063,-1.601562 4.882813,-2.40625 8.53125,-2.40625 2.875,0 5.15625,0.453125 6.84375,1.359375 1.6875,0.898437 2.910156,2.132813 3.671875,3.703125 0.769531,1.5625 1.15625,3.367188 1.15625,5.40625 v 0.234375 h -4.0625 c 0,-2.226563 -0.542969,-3.988281 -1.625,-5.28125 -1.085938,-1.300781 -3.078125,-1.953125 -5.984375,-1.953125 -2.355469,0 -4.1875,0.476562 -5.5,1.421875 -1.3125,0.9375 -1.96875,2.265625 -1.96875,3.984375 0,1.0625 0.222656,1.980469 0.671875,2.75 0.457031,0.761719 1.28125,1.371094 2.46875,1.828125 1.195312,0.449219 2.914062,0.773437 5.15625,0.96875 3.925781,0.3125 6.769531,1.109375 8.53125,2.390625 1.769531,1.273438 2.65625,3.339844 2.65625,6.203125 v 0.296875 c 0,2.710938 -1.042969,4.917969 -3.125,6.625 -2.074219,1.699219 -5.039062,2.546875 -8.890625,2.546875 -2.9375,0 -5.292969,-0.5 -7.0625,-1.5 C 6.535156,-1.859375 5.269531,-3.125 4.5,-4.65625 3.738281,-6.1875 3.359375,-7.734375 3.359375,-9.296875 V -9.53125 h 4.125 c 0,1.136719 0.222656,2.214844 0.671875,3.234375 0.445312,1.023437 1.25,1.855469 2.40625,2.5 1.164062,0.648437 2.765625,0.96875 4.796875,0.96875 z m 0,0"
               id="path25" /></g></g></g><g
         fill="#000000"
         fill-opacity="1"
         id="g31"><g
           transform="translate(524.77547,245.75084)"
           id="g30"><g
             id="g29"><path
               d="m 4.296875,0 v -31.203125 h 4.125 V 0 Z m 4.71875,-43.859375 v 5.296875 h -5.3125 v -5.296875 z m 0,0"
               id="path28" /></g></g></g><g
         fill="#000000"
         fill-opacity="1"
         id="g34"><g
           transform="translate(537.49407,245.75084)"
           id="g33"><g
             id="g32"><path
               d="m 27.5,0 h -4.125 v -21.25 c 0,-2.351562 -0.609375,-4.085938 -1.828125,-5.203125 -1.21875,-1.125 -2.867187,-1.6875 -4.9375,-1.6875 -1.617187,0 -2.984375,0.257813 -4.109375,0.765625 -1.117188,0.511719 -2.039062,1.140625 -2.765625,1.890625 C 9.015625,-24.742188 8.4375,-24.019531 8,-23.3125 V 0 H 3.890625 V -22.375 L 3.53125,-31.203125 h 3.421875 l 0.578125,4.421875 c 0.90625,-1.375 2.210938,-2.5625 3.921875,-3.5625 1.707031,-1 3.894531,-1.5 6.5625,-1.5 3.101563,0 5.457031,0.945312 7.0625,2.828125 C 26.691406,-27.140625 27.5,-24.75 27.5,-21.84375 Z m 0,0"
               id="path31" /></g></g></g><g
         fill="#000000"
         fill-opacity="1"
         id="g37"><g
           transform="translate(568.58398,245.75084)"
           id="g36"><g
             id="g35"><path
               d="m 4.296875,0 v -31.203125 h 4.125 V 0 Z m 4.71875,-43.859375 v 5.296875 h -5.3125 v -5.296875 z m 0,0"
               id="path34" /></g></g></g></g></g></svg>
