<?xml version="1.0" encoding="UTF-8" standalone="no"?>
<!-- Created with Inkscape (http://www.inkscape.org/) -->

<svg
   width="637.42279"
   height="421.56769"
   viewBox="0 0 637.42279 421.56769"
   version="1.1"
   id="svg1"
   xml:space="preserve"
   xmlns="http://www.w3.org/2000/svg"
   xmlns:svg="http://www.w3.org/2000/svg"><defs
     id="defs1"><clipPath
       id="2904bfc4dd"><path
         d="M 274,159.29687 H 688 V 464 H 274 Z m 0,0"
         clip-rule="nonzero"
         id="path1-1" /></clipPath><clipPath
       id="73d11d6084"><path
         d="M 242,225 H 721 V 475.64453 H 242 Z m 0,0"
         clip-rule="nonzero"
         id="path2-2" /></clipPath></defs><g
     id="layer1"
     transform="translate(-309.39374,-291.20636)"><g
       id="g5"
       transform="matrix(1.3333333,0,0,1.3333333,-13.314116,78.81054)"><g
         clip-path="url(#2904bfc4dd)"
         id="g3"><path
           fill="#bf3900"
           d="m 687.33594,208.82422 v 240.8125 c 0,7.75 -6.28516,14.03515 -14.03516,14.03515 H 288.82812 c -7.75,0 -14.03125,-6.28515 -14.03125,-14.03515 V 173.33203 c 0,-7.75 6.28125,-14.03516 14.03125,-14.03516 h 104.95704 c 5.13281,0 9.85546,2.80079 12.3164,7.30469 l 11.41016,20.88281 c 2.46094,4.50391 7.18359,7.30469 12.3125,7.30469 h 243.47656 c 7.75,0 14.03516,6.28516 14.03516,14.03516 z m 0,0"
           fill-opacity="1"
           fill-rule="nonzero"
           id="path3" /></g><g
         clip-path="url(#73d11d6084)"
         id="g4"><path
           fill="#ffc334"
           d="m 719.98828,251.69531 -19.39453,202.42578 c -1.15625,12.10938 -11.32813,21.35157 -23.49219,21.35157 H 285.02734 c -12.16015,0 -22.33203,-9.24219 -23.49218,-21.35157 L 242.14062,251.69531 c -1.32812,-13.85937 9.57032,-25.85156 23.49219,-25.85156 h 430.86328 c 13.92188,0 24.82032,11.99219 23.49219,25.85156 z m 0,0"
           fill-opacity="1"
           fill-rule="nonzero"
           id="path4" /></g><path
         fill="#ffffff"
         d="m 701.83203,441.20703 -0.50781,5.31641 H 260.80859 l -0.51172,-5.31641 z m 0,0"
         fill-opacity="1"
         fill-rule="nonzero"
         id="path5" /><g
         fill="#000000"
         fill-opacity="1"
         id="g8"><g
           transform="translate(359.58797,368.5606)"
           id="g7"><g
             id="g6"><path
               d="m 9.015625,-48.15625 v 26.421875 L 27.15625,-48.15625 h 5.4375 l -14.328125,20.25 L 32.59375,0 h -5.0625 L 15.4375,-23.890625 9.015625,-14.8125 V 0 H 4.5625 v -48.15625 z m 0,0"
               id="path6" /></g></g></g><g
         fill="#000000"
         fill-opacity="1"
         id="g11"><g
           transform="translate(394.28404,368.5606)"
           id="g10"><g
             id="g9"><path
               d="M 4.5,0 V -49.390625 H 8.828125 V 0 Z m 0,0"
               id="path8" /></g></g></g><g
         fill="#000000"
         fill-opacity="1"
         id="g14"><g
           transform="translate(407.6192,368.5606)"
           id="g13"><g
             id="g12"><path
               d="M 4.5,0 V -32.71875 H 8.828125 V 0 Z m 4.953125,-45.984375 v 5.546875 h -5.5625 v -5.546875 z m 0,0"
               id="path11" /></g></g></g><g
         fill="#000000"
         fill-opacity="1"
         id="g17"><g
           transform="translate(420.95435,368.5606)"
           id="g16"><g
             id="g15"><path
               d="m 4.015625,0 v -49.390625 h 4.3125 V -15.4375 l 15.5625,-17.28125 h 5.375 L 18.03125,-20.3125 29.265625,0 h -4.9375 L 15.0625,-17.03125 8.328125,-9.625 V 0 Z m 0,0"
               id="path14" /></g></g></g><g
         fill="#000000"
         fill-opacity="1"
         id="g20"><g
           transform="translate(451.88447,368.5606)"
           id="g19"><g
             id="g18" /></g></g><g
         fill="#000000"
         fill-opacity="1"
         id="g23"><g
           transform="translate(464.23182,368.5606)"
           id="g22"><g
             id="g21"><path
               d="m 15.6875,-33.390625 c 2.300781,0 4.191406,0.433594 5.671875,1.296875 1.476563,0.855469 2.671875,1.902344 3.578125,3.140625 v -20.4375 h 4.328125 v 40.125 L 29.625,0 H 25.984375 L 25.375,-4.390625 c -0.824219,1.40625 -2.027344,2.605469 -3.609375,3.59375 -1.585937,0.976563 -3.609375,1.46875 -6.078125,1.46875 -2.96875,0 -5.382812,-0.7265625 -7.234375,-2.1875 C 6.597656,-2.972656 5.25,-4.9375 4.40625,-7.40625 3.570312,-9.875 3.15625,-12.613281 3.15625,-15.625 v -1.46875 c 0,-3.050781 0.414062,-5.800781 1.25,-8.25 0.84375,-2.445312 2.191406,-4.398438 4.046875,-5.859375 1.851563,-1.457031 4.265625,-2.1875 7.234375,-2.1875 z m 0.921875,30.1875 c 1.476563,0 2.753906,-0.265625 3.828125,-0.796875 1.070312,-0.539062 1.976562,-1.210938 2.71875,-2.015625 0.738281,-0.800781 1.332031,-1.550781 1.78125,-2.25 v -16.1875 c -0.449219,-0.738281 -1.042969,-1.5 -1.78125,-2.28125 -0.742188,-0.78125 -1.648438,-1.4375 -2.71875,-1.96875 -1.074219,-0.539063 -2.351562,-0.8125 -3.828125,-0.8125 -3.09375,0 -5.382813,1.125 -6.859375,3.375 -1.480469,2.242187 -2.21875,5.257813 -2.21875,9.046875 v 1.46875 c 0,3.792969 0.738281,6.8125 2.21875,9.0625 1.476562,2.242188 3.765625,3.359375 6.859375,3.359375 z m 0,0"
               id="path20" /></g></g></g><g
         fill="#000000"
         fill-opacity="1"
         id="g26"><g
           transform="translate(497.56967,368.5606)"
           id="g25"><g
             id="g24"><path
               d="M 4.5,0 V -32.71875 H 8.828125 V 0 Z m 4.953125,-45.984375 v 5.546875 h -5.5625 v -5.546875 z m 0,0"
               id="path23" /></g></g></g><g
         fill="#000000"
         fill-opacity="1"
         id="g29"><g
           transform="translate(510.90483,368.5606)"
           id="g28"><g
             id="g27"><path
               d="m 16.109375,-2.96875 c 2.675781,0 4.703125,-0.539062 6.078125,-1.625 1.382812,-1.09375 2.078125,-2.546875 2.078125,-4.359375 0,-2.21875 -0.703125,-3.707031 -2.109375,-4.46875 C 20.757812,-14.179688 18.476562,-14.707031 15.3125,-15 12.382812,-15.25 10.085938,-15.753906 8.421875,-16.515625 6.753906,-17.273438 5.59375,-18.257812 4.9375,-19.46875 4.28125,-20.6875 3.953125,-22.097656 3.953125,-23.703125 v -0.375 c 0,-2.84375 1.066406,-5.101563 3.203125,-6.78125 2.144531,-1.6875 5.128906,-2.53125 8.953125,-2.53125 3.007813,0 5.394531,0.476563 7.15625,1.421875 1.769531,0.9375 3.054687,2.230469 3.859375,3.875 0.8125,1.648438 1.21875,3.542969 1.21875,5.6875 v 0.25 h -4.265625 c 0,-2.351562 -0.570313,-4.207031 -1.703125,-5.5625 -1.125,-1.351562 -3.214844,-2.03125 -6.265625,-2.03125 -2.46875,0 -4.398437,0.496094 -5.78125,1.484375 -1.375,0.980469 -2.0625,2.375 -2.0625,4.1875 0,1.117187 0.234375,2.074219 0.703125,2.875 0.476562,0.804687 1.34375,1.445313 2.59375,1.921875 1.257812,0.46875 3.066406,0.808594 5.421875,1.015625 4.113281,0.324219 7.09375,1.15625 8.9375,2.5 1.851563,1.335937 2.78125,3.5 2.78125,6.5 v 0.3125 c 0,2.84375 -1.09375,5.164063 -3.28125,6.953125 -2.179687,1.78125 -5.28125,2.671875 -9.3125,2.671875 -3.085937,0 -5.554687,-0.523437 -7.40625,-1.5625 C 6.847656,-1.941406 5.519531,-3.269531 4.71875,-4.875 3.914062,-6.476562 3.515625,-8.101562 3.515625,-9.75 V -10 H 7.84375 c 0,1.199219 0.234375,2.335938 0.703125,3.40625 0.476563,1.0625 1.320313,1.933594 2.53125,2.609375 1.21875,0.679687 2.894531,1.015625 5.03125,1.015625 z m 0,0"
               id="path26" /></g></g></g><g
         fill="#000000"
         fill-opacity="1"
         id="g32"><g
           transform="translate(543.13144,368.5606)"
           id="g31"><g
             id="g30"><path
               d="M 4.5,0 V -32.71875 H 8.828125 V 0 Z m 4.953125,-45.984375 v 5.546875 h -5.5625 v -5.546875 z m 0,0"
               id="path29" /></g></g></g><g
         fill="#000000"
         fill-opacity="1"
         id="g35"><g
           transform="translate(556.46659,368.5606)"
           id="g34"><g
             id="g33"><path
               d="m 28.828125,0 h -4.3125 v -22.28125 c 0,-2.46875 -0.640625,-4.289062 -1.921875,-5.46875 -1.273438,-1.175781 -3,-1.765625 -5.1875,-1.765625 -1.6875,0 -3.121094,0.273437 -4.296875,0.8125 -1.167969,0.53125 -2.132813,1.1875 -2.890625,1.96875 -0.761719,0.78125 -1.371094,1.542969 -1.828125,2.28125 V 0 h -4.3125 v -23.453125 l -0.375,-9.265625 H 7.28125 l 0.625,4.625 c 0.945312,-1.4375 2.3125,-2.675781 4.09375,-3.71875 1.789062,-1.050781 4.085938,-1.578125 6.890625,-1.578125 3.25,0 5.71875,0.992187 7.40625,2.96875 1.6875,1.96875 2.53125,4.476563 2.53125,7.515625 z m 0,0"
               id="path32" /></g></g></g><g
         fill="#000000"
         fill-opacity="1"
         id="g38"><g
           transform="translate(589.06363,368.5606)"
           id="g37"><g
             id="g36"><path
               d="M 4.5,0 V -32.71875 H 8.828125 V 0 Z m 4.953125,-45.984375 v 5.546875 h -5.5625 v -5.546875 z m 0,0"
               id="path35" /></g></g></g></g></g></svg>
