<?xml version="1.0" encoding="UTF-8" standalone="no"?>
<!-- Created with Inkscape (http://www.inkscape.org/) -->

<svg
   width="402.79871"
   height="364.32986"
   viewBox="0 0 402.79871 364.32986"
   version="1.1"
   id="svg1"
   xml:space="preserve"
   xmlns="http://www.w3.org/2000/svg"
   xmlns:svg="http://www.w3.org/2000/svg"><defs
     id="defs1"><clipPath
       id="f2c6bf9210"><path
         d="M 451,332 H 596 V 458.39844 H 451 Z m 0,0"
         clip-rule="nonzero"
         id="path1-6" /></clipPath><clipPath
       id="b4ccb5da4e"><path
         d="M 293,343 H 499 V 458.39844 H 293 Z m 0,0"
         clip-rule="nonzero"
         id="path2-0" /></clipPath><clipPath
       id="6e5abff759"><path
         d="M 293,314 H 572 V 458.39844 H 293 Z m 0,0"
         clip-rule="nonzero"
         id="path3" /></clipPath></defs><g
     id="layer1"
     transform="translate(-358.60065,-488.83506)"><g
       id="g5"
       transform="matrix(1.3333333,0,0,1.3333333,-32.247496,241.96703)"><path
         fill="#1976d2"
         d="m 570.10937,340.4375 -8.79296,-28.53906 c -0.48829,-1.60938 -1.10547,-3.17188 -1.84375,-4.6836 -0.74219,-1.51172 -1.59766,-2.95312 -2.57032,-4.32812 -0.97265,-1.375 -2.04687,-2.66406 -3.22656,-3.86719 -1.17969,-1.20312 -2.44922,-2.30469 -3.80469,-3.30469 -1.35547,-1 -2.78125,-1.88281 -4.28125,-2.65625 -1.49609,-0.76953 -3.04687,-1.41797 -4.64843,-1.9414 -1.60157,-0.52344 -3.23438,-0.91407 -4.90235,-1.17578 -1.66406,-0.26172 -3.33984,-0.39063 -5.02344,-0.38282 H 357.35937 c -1.68359,-0.008 -3.35937,0.1211 -5.02343,0.38282 -1.66797,0.26171 -3.30078,0.65234 -4.90235,1.17578 -1.60156,0.52734 -3.15234,1.17187 -4.65234,1.94531 -1.49609,0.76953 -2.92578,1.65625 -4.28125,2.65625 -1.35547,1 -2.625,2.10156 -3.80078,3.30469 -1.17969,1.20312 -2.25781,2.49218 -3.23047,3.86718 -0.97266,1.375 -1.82813,2.81641 -2.57031,4.32813 -0.73828,1.51172 -1.35547,3.07422 -1.84375,4.68359 l -4.65235,15.10547 c -0.17187,0.5625 -0.29687,1.13672 -0.375,1.71875 -0.0742,0.58594 -0.10156,1.17188 -0.082,1.76172 0.0234,0.58984 0.0937,1.17188 0.21094,1.75 0.12109,0.57813 0.28516,1.14063 0.5,1.6875 0.21484,0.55078 0.47266,1.07813 0.77344,1.58594 0.30468,0.5039 0.64453,0.98437 1.02734,1.43359 0.38281,0.44531 0.80078,0.85938 1.25391,1.24219 0.45312,0.37891 0.93359,0.71484 1.4414,1.01562 L 482.125,430.22266 c 0.51172,0.30468 1.04687,0.55859 1.60547,0.76953 0.55859,0.21484 1.1289,0.375 1.71484,0.49218 0.58594,0.11329 1.17578,0.17969 1.77344,0.19532 0.59375,0.0117 1.1875,-0.0234 1.78125,-0.10938 0.58984,-0.082 1.16797,-0.21875 1.73437,-0.40234 0.56641,-0.1836 1.11719,-0.41406 1.64454,-0.6875 0.52734,-0.27735 1.03125,-0.59766 1.5039,-0.95703 0.47656,-0.36328 0.91406,-0.76172 1.32422,-1.19532 l 72.52344,-77.58984 c 0.63672,-0.67578 1.17187,-1.42578 1.60547,-2.24609 0.4375,-0.82032 0.76172,-1.67969 0.96875,-2.58594 0.21093,-0.90234 0.29687,-1.82031 0.26562,-2.74609 -0.0351,-0.92579 -0.1875,-1.83594 -0.46094,-2.72266 z m 0,0"
         fill-opacity="1"
         fill-rule="nonzero"
         id="path4" /><path
         fill="#689f38"
         d="m 379.32812,345.37109 -41.45703,-24.35547 c -0.34375,-0.20312 -0.69531,-0.38281 -1.05859,-0.54687 -0.36328,-0.16016 -0.73438,-0.30078 -1.11719,-0.42188 -0.3789,-0.11718 -0.76172,-0.21875 -1.15234,-0.29296 -0.39063,-0.0781 -0.78516,-0.13282 -1.17969,-0.16407 -0.39844,-0.0312 -0.79297,-0.0391 -1.19141,-0.0273 -0.39843,0.0117 -0.79296,0.0469 -1.1875,0.10547 -0.39062,0.0547 -0.78125,0.13672 -1.16406,0.23437 -0.38672,0.10157 -0.76562,0.22657 -1.13281,0.36719 -0.37109,0.14453 -0.73438,0.30859 -1.08594,0.49219 -0.35156,0.1875 -0.6914,0.39062 -1.02344,0.61328 -0.32812,0.22266 -0.64453,0.46484 -0.94531,0.72266 -0.30078,0.25781 -0.58984,0.53125 -0.85937,0.82421 -0.26953,0.28907 -0.52344,0.59375 -0.76172,0.91407 -0.23438,0.32031 -0.45313,0.64843 -0.65235,0.99218 -0.19921,0.34375 -0.3789,0.69922 -0.53515,1.0625 -0.16016,0.36329 -0.29688,0.73829 -0.41406,1.11719 l -20.94922,67.97266 c -0.32422,1.05078 -0.47657,2.125 -0.46485,3.22265 0.0117,1.10157 0.19141,2.17188 0.53907,3.21485 0.34765,1.04297 0.84765,2.00781 1.49609,2.89453 0.64844,0.88672 1.41797,1.65234 2.30859,2.30078 0.89063,0.64453 1.85938,1.14063 2.90235,1.48828 1.04687,0.34375 2.11718,0.52344 3.21875,0.53125 1.10156,0.0117 2.17578,-0.14453 3.23047,-0.47265 1.05078,-0.32422 2.02734,-0.80079 2.92968,-1.4336 l 62.40625,-43.61719 c 0.35938,-0.25 0.70313,-0.52343 1.03125,-0.82031 0.32422,-0.29687 0.63282,-0.60937 0.92188,-0.94531 0.28515,-0.33203 0.55078,-0.68359 0.79297,-1.04688 0.24609,-0.36718 0.46484,-0.75 0.66015,-1.14453 0.19532,-0.39453 0.36719,-0.79687 0.51172,-1.21484 0.14453,-0.41406 0.26563,-0.83594 0.35547,-1.26563 0.0937,-0.43359 0.15625,-0.86718 0.19531,-1.30468 0.0391,-0.4375 0.0469,-0.87891 0.0312,-1.31641 -0.0195,-0.44141 -0.0625,-0.875 -0.13281,-1.3125 -0.0742,-0.43359 -0.17187,-0.85937 -0.29687,-1.28125 -0.125,-0.42187 -0.27735,-0.83594 -0.45704,-1.23828 -0.17578,-0.40234 -0.3789,-0.79297 -0.60156,-1.17188 -0.22656,-0.375 -0.47656,-0.73828 -0.75,-1.08593 -0.26953,-0.34375 -0.5625,-0.67578 -0.875,-0.98438 -0.3125,-0.30859 -0.64453,-0.59765 -0.99219,-0.86719 -0.34765,-0.26953 -0.71093,-0.51562 -1.09375,-0.73828 z m 0,0"
         fill-opacity="1"
         fill-rule="nonzero"
         id="path5" /><g
         clip-path="url(#f2c6bf9210)"
         id="g6"><path
           fill="#689f38"
           d="M 593.83203,417.42969 570.10547,340.4375 c -0.13672,-0.4375 -0.30078,-0.86719 -0.49219,-1.28906 -0.19141,-0.41797 -0.41016,-0.82032 -0.65234,-1.21094 -0.2461,-0.39063 -0.51563,-0.76563 -0.8086,-1.12109 -0.29297,-0.35157 -0.60937,-0.6875 -0.94922,-1 -0.33593,-0.31641 -0.6914,-0.60547 -1.07031,-0.875 -0.375,-0.26563 -0.76562,-0.50782 -1.17187,-0.72266 -0.41016,-0.21484 -0.82813,-0.40625 -1.26172,-0.56641 -0.4336,-0.16015 -0.8711,-0.29297 -1.32422,-0.39453 -0.44922,-0.10547 -0.90234,-0.17969 -1.36328,-0.22265 -0.45703,-0.043 -0.91797,-0.0586 -1.37891,-0.0391 -0.46094,0.0156 -0.91797,0.0625 -1.375,0.13672 -0.45312,0.0781 -0.90234,0.1836 -1.34375,0.31641 -0.4414,0.13672 -0.87109,0.29687 -1.28906,0.48828 -0.42188,0.19141 -0.82813,0.41016 -1.21875,0.65625 -0.39063,0.24219 -0.76172,0.51172 -1.12109,0.80469 -0.35547,0.29297 -0.69141,0.60547 -1.00391,0.94531 l -97.5,104.30469 c -0.69922,0.75 -1.28125,1.58593 -1.73828,2.50781 -0.45703,0.92187 -0.77344,1.88672 -0.94922,2.89844 -0.17188,1.01562 -0.19922,2.03125 -0.0781,3.05078 0.125,1.01953 0.39063,2.0039 0.80079,2.94531 0.41015,0.94141 0.94921,1.80859 1.60937,2.59375 0.66406,0.78516 1.42578,1.46094 2.28906,2.02344 0.85938,0.5664 1.78125,0.99219 2.76953,1.28906 0.98438,0.29297 1.99219,0.44141 3.02344,0.44141 h 101.02344 c 0.61719,0 1.23437,-0.0195 1.85156,-0.0547 0.61719,-0.0352 1.23047,-0.0898 1.84375,-0.16016 0.61328,-0.0742 1.22266,-0.16406 1.83203,-0.26953 0.60938,-0.10937 1.21485,-0.23437 1.8125,-0.375 0.60157,-0.14453 1.19922,-0.30469 1.78907,-0.48047 0.59375,-0.17968 1.17968,-0.375 1.75781,-0.58593 0.57812,-0.21094 1.15234,-0.44141 1.71875,-0.6836 0.5664,-0.24609 1.125,-0.50781 1.67969,-0.78515 0.55078,-0.27735 1.09375,-0.57032 1.625,-0.88282 0.53515,-0.30859 1.0625,-0.63281 1.57421,-0.97265 0.51563,-0.33985 1.02344,-0.69532 1.51563,-1.06641 0.49609,-0.36719 0.97656,-0.75 1.44922,-1.14844 0.47265,-0.39843 0.93359,-0.80859 1.3789,-1.23437 0.44922,-0.42578 0.88282,-0.86328 1.30469,-1.3125 0.42578,-0.44922 0.83203,-0.91016 1.22656,-1.38281 0.39844,-0.47657 0.77735,-0.96094 1.14454,-1.45704 0.36718,-0.49609 0.71875,-1 1.05468,-1.51953 0.33985,-0.51562 0.66016,-1.03906 0.96875,-1.57812 0.30469,-0.53516 0.59766,-1.07813 0.8711,-1.62891 0.27343,-0.55469 0.53125,-1.11328 0.77343,-1.67969 0.24219,-0.5664 0.46875,-1.14062 0.67579,-1.72265 0.20703,-0.57813 0.39843,-1.16797 0.57421,-1.75781 0.17188,-0.58985 0.32813,-1.1875 0.46875,-1.78907 0.14063,-0.60156 0.26172,-1.20312 0.36329,-1.8125 0.10546,-0.60937 0.1914,-1.21875 0.25781,-1.83203 0.0703,-0.61328 0.11719,-1.22656 0.15234,-1.84375 0.0312,-0.61328 0.043,-1.23047 0.0391,-1.84765 -0.004,-0.61719 -0.0234,-1.23047 -0.0625,-1.84766 -0.043,-0.61328 -0.10156,-1.22656 -0.17578,-1.83984 -0.0742,-0.61329 -0.16797,-1.22266 -0.28125,-1.82813 -0.11328,-0.60547 -0.24218,-1.20703 -0.38672,-1.80859 -0.14843,-0.59766 -0.3125,-1.19141 -0.49609,-1.78125 z m 0,0"
           fill-opacity="1"
           fill-rule="nonzero"
           id="path6" /></g><g
         clip-path="url(#b4ccb5da4e)"
         id="g7"><path
           fill="#1976d2"
           d="M 492.83594,412.03516 379.32422,345.37109 c -0.8711,-0.51562 -1.80078,-0.89453 -2.78125,-1.14062 -0.98438,-0.2461 -1.98047,-0.34766 -2.99219,-0.3086 -1.01172,0.0391 -1.99609,0.21875 -2.95703,0.54297 -0.96094,0.32422 -1.85547,0.77344 -2.68359,1.35157 l -62.40625,43.61718 c -0.96485,0.67578 -1.79297,1.48828 -2.48438,2.4375 -0.69141,0.94922 -1.21094,1.98438 -1.55859,3.10938 l -6.91797,22.44531 c -0.1836,0.58984 -0.34766,1.18359 -0.4961,1.78125 -0.14453,0.59766 -0.27343,1.20313 -0.38671,1.80859 -0.10938,0.60547 -0.20313,1.21485 -0.28125,1.82813 -0.0742,0.60937 -0.13282,1.22656 -0.17579,1.83984 -0.0391,0.61719 -0.0586,1.23047 -0.0664,1.84766 -0.004,0.61719 0.0117,1.23437 0.043,1.84766 0.0312,0.61718 0.082,1.23046 0.15234,1.84375 0.0664,0.61328 0.15234,1.22265 0.25781,1.83203 0.10157,0.60937 0.22266,1.21093 0.36328,1.8125 0.13672,0.60156 0.29297,1.19922 0.46875,1.78906 0.17188,0.59375 0.36329,1.17969 0.57422,1.75781 0.20703,0.58203 0.4336,1.15625 0.67578,1.72266 0.24219,0.5664 0.5,1.1289 0.77344,1.67969 0.27344,0.55468 0.56641,1.09765 0.8711,1.63281 0.30859,0.53515 0.6289,1.0625 0.96484,1.57812 0.33984,0.51563 0.69141,1.02344 1.05859,1.51953 0.36719,0.4961 0.7461,0.98047 1.14063,1.45313 0.39453,0.47266 0.80469,0.9375 1.22656,1.38672 0.42188,0.44922 0.85938,0.88672 1.30469,1.3125 0.44922,0.42187 0.91015,0.83594 1.38281,1.23437 0.46875,0.39453 0.95313,0.78125 1.44922,1.14844 0.49219,0.37109 1,0.72656 1.51172,1.06641 0.51562,0.33984 1.04297,0.66406 1.57422,0.97265 0.53515,0.3086 1.07812,0.60547 1.6289,0.88282 0.55078,0.27734 1.10938,0.53906 1.67969,0.78515 0.56641,0.24219 1.13672,0.47266 1.71875,0.6836 0.57813,0.21093 1.16406,0.40625 1.75781,0.58593 0.58985,0.17578 1.1875,0.33594 1.78907,0.48047 0.59765,0.14063 1.20312,0.26563 1.8125,0.375 0.60937,0.10547 1.21875,0.19531 1.83203,0.26953 0.61328,0.0703 1.22656,0.125 1.84375,0.16016 0.61718,0.0352 1.23437,0.0547 1.85156,0.0547 h 137.66406 c 1.46485,0 2.86719,-0.29297 4.21094,-0.875 1.34375,-0.58203 2.51562,-1.41016 3.51562,-2.48047 l 24.97266,-26.71485 c 0.26953,-0.28906 0.51953,-0.58984 0.75391,-0.90625 0.23828,-0.3164 0.45312,-0.64453 0.65234,-0.98437 0.19922,-0.33984 0.37891,-0.69141 0.53906,-1.05078 0.15625,-0.36328 0.29688,-0.73047 0.41407,-1.10547 0.11718,-0.375 0.21484,-0.75781 0.28906,-1.14453 0.0781,-0.38672 0.1289,-0.77735 0.16015,-1.16797 0.0312,-0.39453 0.043,-0.78516 0.0274,-1.17969 -0.0117,-0.39453 -0.0469,-0.78515 -0.10156,-1.17578 -0.0586,-0.39062 -0.13672,-0.77734 -0.23438,-1.15625 -0.10156,-0.38281 -0.22266,-0.75781 -0.36328,-1.125 -0.14453,-0.36719 -0.30469,-0.72656 -0.48828,-1.07422 -0.17969,-0.34765 -0.38281,-0.6875 -0.60156,-1.01562 -0.22266,-0.32422 -0.45704,-0.64063 -0.71485,-0.94141 -0.2539,-0.29687 -0.52734,-0.58203 -0.8125,-0.85156 -0.28906,-0.27344 -0.58984,-0.52344 -0.90625,-0.76172 -0.3164,-0.23438 -0.64453,-0.45313 -0.98437,-0.65234 z m 0,0"
           fill-opacity="1"
           fill-rule="nonzero"
           id="path7" /></g><g
         clip-path="url(#6e5abff759)"
         id="g8"><path
           fill="#ffb300"
           d="M 571.85937,346.22266 467.01562,458.39844 h -28.85156 l 32.55078,-34.82422 -96.28125,-56.5625 -81.27343,56.77344 c 0.20312,-2.16407 0.66015,-4.27735 1.37109,-6.33204 l 8.03516,-25.95703 51.89062,-36.30078 -34.45312,-20.26172 6.33984,-20.68359 159.16797,93.49609 77.78515,-83.15625 c 0.41797,-0.50781 0.91407,-0.92968 1.48047,-1.26562 z m 0,0"
           fill-opacity="1"
           fill-rule="nonzero"
           id="path8" /></g><path
         fill="#f44336"
         d="m 495.77734,206.08594 c -1.76172,-1.73047 -3.60547,-3.36328 -5.53125,-4.90625 -1.92578,-1.53907 -3.92578,-2.98047 -5.99609,-4.31641 -2.07422,-1.33984 -4.20703,-2.57031 -6.40625,-3.69531 -2.19531,-1.1211 -4.44531,-2.13281 -6.74609,-3.02735 -2.30079,-0.89453 -4.63672,-1.67187 -7.01563,-2.33203 -2.37891,-0.66015 -4.78516,-1.19531 -7.21875,-1.61328 -2.43359,-0.41406 -4.88281,-0.70703 -7.34375,-0.875 -2.46484,-0.16797 -4.92969,-0.21094 -7.39453,-0.1289 -2.35547,0.0859 -4.69922,0.28125 -7.03125,0.58984 -2.33594,0.30469 -4.64844,0.72266 -6.94531,1.25 -2.29297,0.52344 -4.5586,1.15625 -6.79297,1.89844 -2.23828,0.73828 -4.42969,1.58203 -6.58594,2.53125 -2.15625,0.94531 -4.26172,1.99218 -6.31641,3.14062 -2.05468,1.14453 -4.05468,2.38672 -5.99218,3.71875 -1.9375,1.33594 -3.8086,2.75781 -5.60938,4.26953 -1.80469,1.51172 -3.53125,3.10547 -5.18359,4.78125 -1.65235,1.67578 -3.22266,3.42188 -4.71094,5.2461 -1.48437,1.82422 -2.88281,3.71484 -4.19141,5.66797 -1.30468,1.95703 -2.51953,3.96875 -3.63671,6.03906 -1.11719,2.0664 -2.13282,4.1875 -3.04688,6.35156 -0.91797,2.16406 -1.73047,4.37109 -2.4375,6.61328 -0.70703,2.24219 -1.30469,4.51172 -1.79687,6.8125 -0.49219,2.29688 -0.875,4.61328 -1.14844,6.94922 -0.26953,2.33594 -0.4336,4.67969 -0.48438,7.02734 -0.0664,4.00782 0.19532,7.98829 0.78907,11.94922 0.59375,3.96094 1.50781,7.84766 2.74609,11.66016 1.23828,3.80859 2.77734,7.49219 4.625,11.04687 1.84766,3.55469 3.97656,6.9336 6.38281,10.13672 1.33203,1.9961 34.64844,48.25 45.29688,62.98047 0.38672,0.53906 0.80468,1.05078 1.2539,1.53906 0.44922,0.48829 0.92578,0.94532 1.42969,1.37891 0.5,0.42969 1.02734,0.83203 1.57813,1.20313 0.55078,0.37109 1.12109,0.70703 1.71093,1.00781 0.58985,0.30469 1.19532,0.57031 1.81641,0.80469 0.62109,0.23046 1.25391,0.42578 1.89844,0.58203 0.64453,0.15625 1.29687,0.27734 1.95703,0.35547 0.65625,0.082 1.3164,0.125 1.98047,0.125 0.66406,0.004 1.32422,-0.0312 1.98437,-0.10547 0.66016,-0.0781 1.3125,-0.19141 1.95703,-0.33985 0.64844,-0.15234 1.28125,-0.34375 1.90625,-0.5664 0.6211,-0.22657 1.23047,-0.49219 1.82422,-0.78907 0.58985,-0.29687 1.16406,-0.6289 1.71875,-0.99218 0.55469,-0.36719 1.08203,-0.76172 1.58985,-1.19141 0.50781,-0.42578 0.98828,-0.88281 1.4375,-1.36719 0.45312,-0.48437 0.8789,-0.99218 1.26953,-1.52734 0.40625,-0.53516 44.36328,-60.54688 46.07422,-62.72266 2.36328,-3.17578 4.45703,-6.52343 6.28515,-10.03125 1.82813,-3.51172 3.3711,-7.14453 4.6211,-10.90234 1.25,-3.75391 2.19531,-7.58594 2.83593,-11.49219 0.64063,-3.90234 0.97266,-7.83594 0.98438,-11.79297 0.0117,-2.46093 -0.10547,-4.91797 -0.34766,-7.37109 -0.23828,-2.44922 -0.60156,-4.88281 -1.08594,-7.29688 -0.48437,-2.41406 -1.08984,-4.80078 -1.8164,-7.15234 -0.72656,-2.35547 -1.57031,-4.66406 -2.53125,-6.93359 -0.95703,-2.26953 -2.03125,-4.48438 -3.21094,-6.64453 -1.18359,-2.16016 -2.47266,-4.25782 -3.86719,-6.28907 -1.39453,-2.03125 -2.89062,-3.98437 -4.48047,-5.86718 -1.59375,-1.87891 -3.27734,-3.67579 -5.05078,-5.38672 z m 0,0"
         fill-opacity="1"
         fill-rule="nonzero"
         id="path9" /><path
         fill="#eeeeee"
         d="m 475.89453,260.01172 c 0,1.03515 -0.0508,2.07031 -0.15234,3.10156 -0.10157,1.03125 -0.25391,2.05469 -0.45703,3.07422 -0.20313,1.01562 -0.45313,2.01953 -0.75782,3.01172 -0.30078,0.99219 -0.64843,1.96875 -1.04687,2.92578 -0.39844,0.95703 -0.83985,1.89453 -1.32813,2.80859 -0.49218,0.91407 -1.02343,1.80078 -1.60156,2.66407 -0.57812,0.86328 -1.19531,1.69531 -1.85156,2.49609 -0.66016,0.80078 -1.35547,1.56641 -2.08985,2.30078 -0.73437,0.73438 -1.5039,1.42969 -2.30859,2.08594 -0.80078,0.66015 -1.63281,1.27734 -2.49609,1.85156 -0.86328,0.57813 -1.75391,1.10938 -2.67188,1.59766 -0.91406,0.48828 -1.85156,0.92968 -2.8125,1.32812 -0.95703,0.39844 -1.93359,0.7461 -2.92969,1.04688 -0.99218,0.30078 -2,0.55078 -3.01562,0.7539 -1.01953,0.20313 -2.04688,0.35547 -3.07813,0.45703 -1.03515,0.10157 -2.07031,0.15235 -3.10937,0.15235 -1.03906,0 -2.07422,-0.0508 -3.10938,-0.15235 -1.03125,-0.10156 -2.05859,-0.2539 -3.07421,-0.45703 -1.01954,-0.20312 -2.02735,-0.45312 -3.01954,-0.7539 -0.99609,-0.30078 -1.97265,-0.64844 -2.92968,-1.04688 -0.96094,-0.39844 -1.89844,-0.83984 -2.8125,-1.32812 -0.91797,-0.48828 -1.80469,-1.01953 -2.66797,-1.59766 -0.86328,-0.57422 -1.69922,-1.19141 -2.5,-1.85156 -0.80469,-0.65625 -1.57031,-1.35156 -2.30469,-2.08594 -0.73437,-0.73437 -1.43359,-1.5 -2.08984,-2.30078 -0.66016,-0.80078 -1.27735,-1.63281 -1.85547,-2.49609 -0.57813,-0.86329 -1.10938,-1.75 -1.59766,-2.66407 -0.49219,-0.91406 -0.93359,-1.85156 -1.33203,-2.80859 -0.39844,-0.95703 -0.74609,-1.93359 -1.04687,-2.92578 -0.30079,-0.99219 -0.55469,-1.9961 -0.75782,-3.01172 -0.20312,-1.01953 -0.35547,-2.04297 -0.45703,-3.07422 -0.10156,-1.03125 -0.15234,-2.06641 -0.15234,-3.10156 0,-1.03906 0.0508,-2.07422 0.15234,-3.10547 0.10156,-1.03125 0.25391,-2.05469 0.45703,-3.07422 0.20313,-1.01562 0.45703,-2.01953 0.75782,-3.01172 0.30078,-0.99219 0.64843,-1.96875 1.04687,-2.92578 0.39844,-0.95703 0.83984,-1.89453 1.33203,-2.80859 0.48828,-0.91407 1.01953,-1.80078 1.59766,-2.66407 0.57812,-0.86328 1.19531,-1.69531 1.85547,-2.49609 0.65625,-0.80078 1.35547,-1.56641 2.08984,-2.30078 0.73438,-0.73438 1.5,-1.42969 2.30469,-2.08594 0.80078,-0.66015 1.63672,-1.27734 2.5,-1.85156 0.86328,-0.57422 1.75,-1.10938 2.66797,-1.59766 0.91406,-0.48828 1.85156,-0.92968 2.8125,-1.32812 0.95703,-0.39453 1.93359,-0.7461 2.92968,-1.04688 0.99219,-0.30078 2,-0.55078 3.01954,-0.7539 1.01562,-0.20313 2.04296,-0.35547 3.07421,-0.45703 1.03516,-0.10157 2.07032,-0.15235 3.10938,-0.15235 1.03906,0 2.07422,0.0508 3.10937,0.15235 1.03125,0.10156 2.0586,0.2539 3.07813,0.45703 1.01562,0.20312 2.02344,0.45312 3.01562,0.7539 0.9961,0.30078 1.97266,0.65235 2.92969,1.04688 0.96094,0.39844 1.89844,0.83984 2.8125,1.32812 0.91797,0.48828 1.8086,1.02344 2.67188,1.59766 0.86328,0.57422 1.69531,1.19141 2.49609,1.85156 0.80469,0.65625 1.57422,1.35156 2.30859,2.08594 0.73438,0.73437 1.42969,1.5 2.08594,2.30078 0.66016,0.80078 1.27735,1.63281 1.85547,2.49609 0.57813,0.86329 1.10938,1.75 1.60156,2.66407 0.48828,0.91406 0.92969,1.85156 1.32813,2.80859 0.39844,0.95703 0.74609,1.93359 1.04687,2.92578 0.30469,0.99219 0.55469,1.9961 0.75782,3.01172 0.20312,1.01953 0.35546,2.04297 0.45703,3.07422 0.10156,1.03125 0.15234,2.06641 0.15234,3.10547 z m 0,0"
         fill-opacity="1"
         fill-rule="nonzero"
         id="path10" /></g></g></svg>
