<?xml version="1.0" encoding="UTF-8" standalone="no"?>
<!-- Created with Inkscape (http://www.inkscape.org/) -->

<svg
   width="665.51038"
   height="553.50525"
   viewBox="0 0 665.51038 553.50525"
   version="1.1"
   id="svg1"
   xml:space="preserve"
   xmlns="http://www.w3.org/2000/svg"
   xmlns:svg="http://www.w3.org/2000/svg"><defs
     id="defs1"><clipPath
       id="b8144eb7a9"><path
         d="m 262.38672,83 h 499.2539 v 390.75781 h -499.2539 z m 0,0"
         clip-rule="nonzero"
         id="path1-62" /></clipPath><clipPath
       id="2f32b0dc6a"><path
         d="m 262.38672,83 h 499.2539 v 76 h -499.2539 z m 0,0"
         clip-rule="nonzero"
         id="path2-6" /></clipPath></defs><g
     id="layer1"
     transform="translate(-628.52844,-201.41611)"><g
       id="g5"
       transform="matrix(1.3333333,0,0,1.3333333,278.51801,124.07236)"><g
         clip-path="url(#b8144eb7a9)"
         id="g3"><path
           fill="#ffffff"
           d="M 713.92578,473.13672 H 310.37109 c -26.4375,0 -47.86328,-21.4375 -47.86328,-47.85938 V 131.75781 c 0,-26.44531 21.42578,-47.859372 47.86328,-47.859372 h 403.55469 c 26.44531,0 47.85547,21.414062 47.85547,47.859372 v 293.51953 c 0,26.42188 -21.41016,47.85938 -47.85547,47.85938"
           fill-opacity="1"
           fill-rule="nonzero"
           id="path3-1" /></g><g
         clip-path="url(#2f32b0dc6a)"
         id="g4"><path
           fill="#f66000"
           d="m 761.78125,158.45703 v -26.69922 c 0,-26.44531 -21.41016,-47.859372 -47.85547,-47.859372 H 310.37109 c -26.4375,0 -47.86328,21.414062 -47.86328,47.859372 v 26.69922 h 499.26953"
           fill-opacity="1"
           fill-rule="nonzero"
           id="path4" /></g><path
         fill="#ffc334"
         d="m 495.58984,247.27734 h -67.33593 v -67.33203 h 67.33593 v 67.33203"
         fill-opacity="1"
         fill-rule="nonzero"
         id="path5" /><path
         fill="#ffc334"
         d="m 596.03906,247.27734 h -67.33594 v -67.33203 h 67.33594 v 67.33203"
         fill-opacity="1"
         fill-rule="nonzero"
         id="path6" /><path
         fill="#ffc334"
         d="M 696.48828,247.27734 H 629.125 v -67.33203 h 67.36328 v 67.33203"
         fill-opacity="1"
         fill-rule="nonzero"
         id="path7" /><path
         fill="#40a456"
         d="m 395.16797,336.10156 h -67.35938 v -67.33594 h 67.35938 v 67.33594"
         fill-opacity="1"
         fill-rule="nonzero"
         id="path8" /><path
         fill="#ffc334"
         d="m 495.58984,336.10156 h -67.33593 v -67.33594 h 67.33593 v 67.33594"
         fill-opacity="1"
         fill-rule="nonzero"
         id="path9" /><path
         fill="#ffc334"
         d="m 596.03906,336.10156 h -67.33594 v -67.33594 h 67.33594 v 67.33594"
         fill-opacity="1"
         fill-rule="nonzero"
         id="path10" /><path
         fill="#ffc334"
         d="M 696.48828,336.10156 H 629.125 v -67.33594 h 67.36328 v 67.33594"
         fill-opacity="1"
         fill-rule="nonzero"
         id="path11" /><path
         fill="#40a456"
         d="m 395.16797,424.92578 h -67.35938 v -67.33594 h 67.35938 v 67.33594"
         fill-opacity="1"
         fill-rule="nonzero"
         id="path12" /><path
         fill="#ffc334"
         d="m 495.58984,424.92578 h -67.33593 v -67.33594 h 67.33593 v 67.33594"
         fill-opacity="1"
         fill-rule="nonzero"
         id="path13" /><path
         fill="#ffc334"
         d="m 596.03906,424.92578 h -67.33594 v -67.33594 h 67.33594 v 67.33594"
         fill-opacity="1"
         fill-rule="nonzero"
         id="path14" /><path
         fill="#bf3900"
         d="m 360.46875,142.19922 c -11.95313,0 -21.64063,-9.6875 -21.64063,-21.63672 V 79.671875 c 0,-11.976563 9.6875,-21.664063 21.64063,-21.664063 11.95312,0 21.64062,9.6875 21.64062,21.664063 V 120.5625 c 0,11.94922 -9.6875,21.63672 -21.64062,21.63672"
         fill-opacity="1"
         fill-rule="nonzero"
         id="path15" /><path
         fill="#bf3900"
         d="m 517.65625,142.19922 c -11.94922,0 -21.66406,-9.6875 -21.66406,-21.63672 V 79.671875 c 0,-11.976563 9.71484,-21.664063 21.66406,-21.664063 11.95312,0 21.64062,9.6875 21.64062,21.664063 V 120.5625 c 0,11.94922 -9.6875,21.63672 -21.64062,21.63672"
         fill-opacity="1"
         fill-rule="nonzero"
         id="path16" /><path
         fill="#bf3900"
         d="m 674.82031,142.19922 c -11.94922,0 -21.63672,-9.6875 -21.63672,-21.63672 V 79.671875 c 0,-11.976563 9.6875,-21.664063 21.63672,-21.664063 11.95313,0 21.66797,9.6875 21.66797,21.664063 V 120.5625 c 0,11.94922 -9.71484,21.63672 -21.66797,21.63672"
         fill-opacity="1"
         fill-rule="nonzero"
         id="path17" /><path
         stroke-linecap="round"
         transform="matrix(0.251624,0,0,-0.251624,45.234386,800.52363)"
         fill="none"
         stroke-linejoin="round"
         d="m 1991.7059,1617.4963 81.3001,-76.5032 144.8872,246.9121"
         stroke="#d54050"
         stroke-width="54.101"
         stroke-opacity="1"
         stroke-miterlimit="10"
         id="path18" /></g></g></svg>
